<svg width="1030" height="1030" viewBox="0 0 1030 1030" fill="none" xmlns="http://www.w3.org/2000/svg">
<circle cx="515" cy="515" r="475" fill="#E3E3E3"/>
<path fill-rule="evenodd" clip-rule="evenodd" d="M469.107 2.35393C33.4932 44.0879 -157.114 571.311 152.024 879.414C427.384 1153.85 898.066 1033.34 1008.15 660.21C1110.3 313.965 826.882 -31.9231 469.107 2.35393ZM544.285 174.959C678.59 197.519 732.503 363.472 637.607 462.223C562.284 540.607 432.102 529.268 372.576 439.139C289.348 313.121 395.404 149.95 544.285 174.959ZM534.587 590.935C695.095 598.623 827.89 686.831 860.131 807.173C863.463 819.609 863.859 818.376 852.619 830.565C675.979 1022.1 371.575 1026.64 186.307 840.489C165.033 819.114 165.872 820.469 168.074 811.081C196.045 691.804 333.624 598.2 491.607 590.958C500.682 590.542 509.232 590.136 510.607 590.054C511.982 589.973 522.773 590.369 534.587 590.935Z" fill="#333333"/>
</svg>
