<svg width="256" height="256" viewBox="0 0 256 256" fill="none" xmlns="http://www.w3.org/2000/svg">
<rect width="256" height="256" fill="#111111"/>
<rect x="54" y="78" width="148" height="100" rx="6" stroke="#555555" stroke-width="4"/>
<mask id="mask0_1253_31" style="mask-type:alpha" maskUnits="userSpaceOnUse" x="64" y="88" width="128" height="80">
<rect x="64" y="88" width="128" height="80" fill="white"/>
</mask>
<g mask="url(#mask0_1253_31)">
<path d="M157.282 121.824C159.104 119.941 160.015 119 161.5 119C162.985 119 163.896 119.941 165.718 121.824L207.354 164.842C208.729 166.263 209.417 166.974 208.732 167.487C208.046 168 206.409 168 203.136 168H119.864C116.591 168 114.954 168 114.268 167.487C113.583 166.974 114.271 166.263 115.646 164.842L157.282 121.824Z" fill="#555555"/>
<path d="M78.0811 126.536C79.5579 124.845 80.2963 124 81.5 124C82.7037 124 83.4421 124.845 84.9189 126.536L118.666 165.164C119.781 166.44 120.338 167.078 119.782 167.539C119.227 168 117.9 168 115.247 168H47.7531C45.0998 168 43.7731 168 43.2176 167.539C42.662 167.078 43.2194 166.44 44.3342 165.164L78.0811 126.536Z" fill="#555555"/>
<path d="M116.394 109.573C118.599 107.191 119.702 106 121.5 106C123.298 106 124.401 107.191 126.606 109.573L177.007 164.004C178.672 165.802 179.505 166.701 178.675 167.351C177.845 168 175.864 168 171.901 168H71.0988C67.1361 168 65.1547 168 64.3249 167.351C63.4952 166.701 64.3277 165.802 65.9927 164.004L116.394 109.573Z" fill="#555555"/>
<circle cx="81.5" cy="99.5" r="6.5" fill="#555555"/>
</g>
</svg>