<svg width="275" height="315" viewBox="0 0 275 315" fill="none" xmlns="http://www.w3.org/2000/svg">
<path fill-rule="evenodd" clip-rule="evenodd" d="M239.516 3.22539C236.836 15.6214 223.002 27.9364 211.727 27.9654C206.631 27.9784 207.34 30.2114 212.732 31.1324C218.125 32.0534 223.278 34.2894 227.806 37.6744C233.791 42.1484 235.21 44.3194 239.927 56.2254C241.243 59.5464 243.056 59.8354 243.07 56.7254C243.086 53.0424 247.52 44.7484 251.678 40.6254C256.388 35.9554 263.011 32.4714 269.06 31.4814C271.535 31.0764 273.946 30.5154 274.417 30.2354C275.726 29.4564 272.879 28.0084 270.006 27.9904C266.142 27.9674 257.097 23.1894 252.193 18.5804C247.656 14.3164 243.087 6.12439 243.07 2.22539C243.055 -1.23961 240.315 -0.468607 239.516 3.22539ZM118.704 39.5584C118.35 42.1414 118.059 46.3294 118.059 48.8654C118.056 59.8144 109.091 88.1524 101.416 101.475C88.2507 124.326 74.8377 138.717 52.4947 153.963C42.3007 160.919 23.4267 169.236 10.2477 172.579C4.99666 173.911 0.510654 175.19 0.279654 175.422C-0.835346 176.536 1.46166 177.758 5.78266 178.349C12.1327 179.217 29.8397 185.366 38.5597 189.731C59.9047 200.415 81.0017 219.091 94.1887 238.975C103.473 252.975 105.898 257.71 110.345 270.528C114.754 283.233 117.719 296.26 118.585 306.725C118.961 311.263 119.636 314.975 120.084 314.975C120.533 314.975 121.199 311.937 121.563 308.225C123.363 289.874 128.233 271.629 135.244 256.975C143.133 240.484 157.354 221.903 170.99 210.268C190.075 193.984 212.074 183.009 235.81 177.932C241.577 176.699 242.569 175.319 238.31 174.455C214 169.522 192.284 159.104 172.56 142.914C163.256 135.276 158.602 130.316 150.254 119.141C133.874 97.2144 124.721 73.9504 122.055 47.4754C121.446 41.4254 120.587 36.1124 120.147 35.6694C119.707 35.2254 119.058 36.9754 118.704 39.5584Z" fill="url(#paint0_linear_933_12)"/>
<defs>
<linearGradient id="paint0_linear_933_12" x1="279" y1="-5.99999" x2="5.89705e-06" y2="352" gradientUnits="userSpaceOnUse">
<stop offset="0.481427" stop-color="#FF6064"/>
<stop offset="1" stop-color="#FF4475"/>
</linearGradient>
</defs>
</svg>
