<svg width="185" height="145" viewBox="0 0 185 145" fill="none" xmlns="http://www.w3.org/2000/svg">
<path fill-rule="evenodd" clip-rule="evenodd" d="M6.57757e-05 68.4477C0.00013313 130.024 0.0105748 136.946 0.104534 137.4C0.511556 139.368 1.51466 141.183 2.92008 142.494C4.05594 143.555 5.76654 144.489 7.24058 144.853C7.68573 144.963 11.2573 144.971 71.2271 144.993C115.9 145.01 135.022 144.996 135.685 144.945C136.204 144.905 137.189 144.841 137.874 144.802C138.56 144.763 139.499 144.688 139.962 144.635C140.425 144.583 141.168 144.507 141.612 144.467C142.057 144.427 142.467 144.381 142.523 144.365C142.58 144.348 143.095 144.274 143.668 144.199C147.111 143.75 150.227 143.122 154.006 142.115C155.007 141.848 157.861 140.942 158.249 140.768C158.323 140.735 158.459 140.687 158.552 140.662C158.645 140.637 158.811 140.576 158.922 140.527C159.034 140.478 159.412 140.328 159.764 140.194C160.116 140.06 160.495 139.91 160.606 139.86C160.717 139.81 161.005 139.688 161.246 139.588C163.077 138.831 165.766 137.434 167.645 136.263C173.38 132.691 177.691 128.041 180.519 122.374C180.973 121.465 181.478 120.35 181.657 119.863C181.725 119.678 181.859 119.315 181.955 119.056C182.95 116.376 183.633 113.316 183.993 109.934C184.09 109.015 184.111 108.172 184.112 105.053C184.113 100.373 184.02 99.1682 183.406 95.9311C183.108 94.3567 182.786 93.1297 182.25 91.5217C181.236 88.4808 179.736 85.6574 177.887 83.3086C176.915 82.0735 174.804 79.8826 173.437 78.69C170.471 76.1009 166.767 73.6655 162.93 71.7811C161.637 71.1462 160.52 70.6188 160.467 70.6188C160.45 70.6188 160.308 70.5601 160.151 70.4884C159.766 70.3129 159.51 70.2064 158.254 69.7023C157.664 69.4654 157.17 69.2603 157.156 69.2463C157.142 69.2324 157.473 69.0299 157.892 68.7963C163.758 65.5226 168.493 60.9509 171.554 55.6064C172.432 54.0724 173.664 51.4466 173.922 50.5574C173.959 50.4278 174.013 50.2915 174.042 50.2544C174.106 50.1712 174.602 48.6494 174.832 47.8309C176.217 42.8984 176.444 35.793 175.398 30.0921C174.991 27.8698 174.618 26.5457 173.643 23.865C173.115 22.4133 171.835 19.9202 170.771 18.2713C167.718 13.5389 162.902 9.1731 157.575 6.30964C156.931 5.96315 154.398 4.71241 154.341 4.71241C154.322 4.71241 154.179 4.65418 154.022 4.58295C153.464 4.33037 152.77 4.03921 152.725 4.03921C152.699 4.03921 152.583 3.99478 152.467 3.94045C151.555 3.51633 148.121 2.41901 146.226 1.94622C143.731 1.32358 141.212 0.8621 138.548 0.539502C137.937 0.46545 137.209 0.375713 136.931 0.339966C136.653 0.304286 135.896 0.242554 135.247 0.202835C134.599 0.163117 133.809 0.101247 133.492 0.0652985C133.126 0.0238967 119.697 0 96.8003 0H60.6862V14.0351V28.0703L93.8413 28.0965C115.947 28.1141 127.176 28.1459 127.535 28.1919C127.832 28.2299 128.453 28.3094 128.916 28.3686C130.93 28.6263 133.834 29.309 134.81 29.7543C134.884 29.7881 135.156 29.8969 135.416 29.9961C135.968 30.2073 137.248 30.839 137.878 31.2114C139.668 32.2696 141.38 33.9264 142.357 35.545C143.183 36.914 143.609 38.097 144.042 40.2238C144.18 40.8994 144.251 44.145 144.15 45.1381C144.065 45.9685 143.852 47.1713 143.702 47.6638C143.358 48.7949 143.206 49.1913 142.814 49.9852C142.239 51.1501 141.646 51.9707 140.669 52.9516C139.561 54.0653 138.614 54.7304 136.936 55.5746C135.618 56.237 133.784 56.939 132.52 57.265C131.758 57.4615 131.037 57.6306 130.533 57.7317C130.255 57.7873 129.83 57.8762 129.59 57.9293C129.349 57.9823 128.78 58.0731 128.326 58.1311C127.872 58.1891 127.463 58.2491 127.417 58.2645C127.287 58.3081 125.755 58.4249 123.865 58.5354C122.388 58.6217 117.835 58.6357 91.4166 58.6358H60.6862V71.9302V85.2247L60.8377 85.2603C60.9211 85.2798 77.0533 85.3062 96.6871 85.3189C128.843 85.3395 132.502 85.3526 133.564 85.4501C137.437 85.8061 140.023 86.3262 142.593 87.2656C143.897 87.7423 144.923 88.2508 146.058 88.9827C147.595 89.974 149.079 91.426 150.168 93.0027C150.643 93.6898 151.253 94.9407 151.614 95.9648C152.267 97.8194 152.579 100.702 152.349 102.764C152.039 105.543 151.623 107.019 150.665 108.732C148.944 111.81 145.741 114.112 141.276 115.48C139.197 116.117 137.892 116.364 134.237 116.813C133.504 116.903 73.0648 116.963 49.1181 116.898L32.0606 116.851V58.4255V0H16.0303H0L6.57757e-05 68.4477Z" fill="url(#paint0_linear_24_26)"/>
<defs>
<linearGradient id="paint0_linear_24_26" x1="120.025" y1="39.3486" x2="72.1767" y2="145.026" gradientUnits="userSpaceOnUse">
<stop stop-color="#AC82F0"/>
<stop offset="1" stop-color="#E1AFCC"/>
</linearGradient>
</defs>
</svg>
