<svg width="150" height="150" viewBox="0 0 150 150" fill="none" xmlns="http://www.w3.org/2000/svg">
<path fill-rule="evenodd" clip-rule="evenodd" d="M64.9315 0.516469C31.0395 5.25297 5.04781 31.3724 0.460825 65.3038C-0.153608 69.8474 -0.153608 80.1831 0.460825 84.7267C5.06757 118.806 31.1905 144.932 65.2663 149.539C69.8094 150.154 80.144 150.154 84.6871 149.539C118.763 144.932 144.886 118.806 149.493 84.7267C150.452 77.6276 150.014 66.5167 148.488 59.276C142.446 30.5995 119.388 7.53884 90.7142 1.49598C83.553 -0.0133064 71.8918 -0.456349 64.9315 0.516469ZM74.9767 29.4569V48.1946L76.0649 48.3466C80.7279 48.998 82.3606 49.3576 84.6178 50.2307C92.5971 53.3165 98.5673 60.1048 100.82 68.6526C101.746 72.1674 101.732 77.9133 100.788 81.5045C99.8916 84.9179 98.2197 88.3628 96.136 91.0893C94.0325 93.842 92.8351 94.9642 89.7382 97.085C85.8674 99.7359 82.9245 100.726 76.0649 101.684L74.9767 101.836V120.59V139.345L73.0514 139.17C71.9926 139.074 69.9959 138.904 68.6147 138.794C62.0033 138.266 54.2802 136.115 47.6142 132.943C34.262 126.589 23.5783 115.978 17.222 102.756C7.93214 83.433 8.96445 60.3701 19.9369 42.1062C27.7728 29.0631 40.5725 18.8641 55.0872 14.0981C61.0031 12.1555 65.9876 11.2875 74.2233 10.7664L74.9767 10.7188V29.4569ZM68.2869 48.9176C59.9156 51.1094 52.973 57.2798 49.9048 65.2556C48.5983 68.6512 48.1894 71.0593 48.1894 75.3581C48.1894 82.7348 50.906 89.1035 56.2795 94.3233C60.9676 98.8776 67.6527 101.805 73.3641 101.805H74.9767V75.0152V48.2251L72.884 48.2435C71.7331 48.2535 69.6641 48.5569 68.2869 48.9176Z" fill="url(#paint0_linear_31_248)"/>
<defs>
<linearGradient id="paint0_linear_31_248" x1="111.167" y1="31.4784" x2="46.1981" y2="134.447" gradientUnits="userSpaceOnUse">
<stop stop-color="#AC82F0"/>
<stop offset="1" stop-color="#E1AFCC"/>
</linearGradient>
</defs>
</svg>
